<svg id="Layer_1" enable-background="new 0 0 512 512" height="512" viewBox="0 0 512 512" width="512" xmlns="http://www.w3.org/2000/svg"><g><path d="m155.102 137.768c.09-.104.179-.209.269-.313 12.202-14.206 27.679-31.413 45.415-37.454-9.256-16.654-53.91-82.039-185.538-83.793-8.328-.11-15.181 6.545-15.244 14.875-.258 34.247 11.412 120.335 126.011 177.713-.117-2.262-.17-4.504-.17-6.703 0-26.964 13.067-45.334 27.628-62.423.537-.627 1.078-1.26 1.629-1.902z" class="tg-01" fill="#ff6326"/><path d="m155.092 137.779c-37.189-66.905-127.256-108.998-149.186-118.473-3.484 2.661-5.767 6.803-5.887 11.508-.01.582-.016 1.18-.018 1.794.106 35.212 13.076 119.623 125.975 176.168-.083-1.915-.131-3.816-.131-5.683 0-.148.006-.291.007-.438-.001-.186-.007-.376-.007-.562 0-26.964 13.067-45.334 27.628-62.423.533-.624 1.072-1.253 1.619-1.891z" fill="#ce3b00"/><path d="m356.898 137.768c-.09-.104-.179-.209-.269-.313-12.202-14.206-27.679-31.413-45.415-37.454 9.256-16.654 53.91-82.039 185.538-83.793 8.329-.111 15.182 6.545 15.244 14.874.258 34.247-11.412 120.335-126.011 177.713.117-2.262.17-4.504.17-6.703 0-26.964-13.067-45.334-27.628-62.423-.537-.626-1.078-1.259-1.629-1.901z" fill="#ce3b00"/><path d="m356.908 137.779c37.189-66.905 127.256-108.998 149.186-118.473 3.484 2.661 5.767 6.803 5.887 11.508.01.582.016 1.18.018 1.794-.106 35.212-13.076 119.622-125.974 176.168.083-1.915.131-3.816.131-5.683 0-.148-.006-.291-.007-.438.001-.186.007-.376.007-.562 0-26.964-13.067-45.334-27.628-62.423-.534-.624-1.073-1.253-1.62-1.891z" fill="#ac3300"/><g><path d="m256.001 495.793c-17.946 0-35.248-4.105-51.426-12.2-36.249-18.112-61.74-54.086-68.18-96.226l-24.538-160.527c-.897-5.882-1.488-11.692-1.758-17.275-.124-2.401-.188-4.934-.188-7.472 0-30.717 9.729-58.219 28.136-79.533 14.588-16.924 33.971-29.592 57.601-37.641 18.412-6.273 38.718-9.454 60.353-9.454 22.74 0 43.954 3.5 63.053 10.401 23.06 8.32 41.919 21.126 56.045 38.059 19.872 23.742 29.07 54.629 26.581 89.297-.322 4.515-.839 9.103-1.537 13.636l-24.535 160.509c-6.439 42.142-31.935 78.116-68.201 96.232-16.141 8.088-33.442 12.194-51.406 12.194z" fill="#ff7d47"/></g><path d="m319.054 85.866c-19.098-6.902-40.312-10.402-63.052-10.402v420.329c17.964 0 35.265-4.106 51.405-12.195 36.266-18.115 61.762-54.089 68.201-96.231l24.535-160.509c.698-4.533 1.215-9.121 1.537-13.636 2.489-34.668-6.709-65.555-26.581-89.297-14.126-16.934-32.985-29.74-56.045-38.059z" fill="#ff6326"/><path d="m267.987 408.264h-23.976l-58.128 63.71c5.842 4.417 12.086 8.318 18.692 11.619 3.265 1.634 6.578 3.097 9.931 4.405l41.493-45.05 41.495 45.052c3.348-1.307 6.655-2.769 9.912-4.402 6.612-3.303 12.861-7.206 18.707-11.625z" fill="#555a66"/><path d="m256.001 408.264v34.686l41.493 45.05c3.348-1.307 6.655-2.769 9.912-4.402 6.612-3.303 12.861-7.206 18.707-11.625l-58.126-63.709z" fill="#414952"/><g><g><path d="m185.339 231.368c8.335 0 16.319-7.329 15.934-15.934-.387-8.633-7.001-15.934-15.934-15.934-8.335 0-16.319 7.329-15.934 15.934.387 8.633 7.001 15.934 15.934 15.934z" fill="#414952"/></g></g><g><g><path d="m326.66 231.368c8.335 0 16.319-7.329 15.934-15.934-.387-8.633-7.001-15.934-15.934-15.934-8.335 0-16.319 7.329-15.934 15.934.387 8.633 7.001 15.934 15.934 15.934z" fill="#23272b"/></g></g><g><path d="m255.999 434.693c-4.774 0-9.298-2.141-12.324-5.834l-37.496-45.754c-10.656-13.002-13.348-30.106-7.2-45.754 6.144-15.637 19.747-26.328 36.39-28.599 13.43-1.833 27.827-1.835 41.262 0 16.642 2.271 30.245 12.962 36.389 28.6 6.147 15.647 3.455 32.751-7.2 45.753l-37.496 45.754c-3.027 3.693-7.55 5.834-12.325 5.834z" fill="#414952"/></g><path d="m276.631 308.752c-6.716-.917-13.673-1.375-20.629-1.375v127.317c4.774 0 9.296-2.141 12.322-5.834l37.496-45.754c10.656-13.002 13.348-30.106 7.2-45.753-6.144-15.639-19.748-26.33-36.389-28.601z" fill="#23272b"/></g></svg>